<svg xmlns="http://www.w3.org/2000/svg" xmlns:xlink="http://www.w3.org/1999/xlink" viewBox="0,0,256,256" width="128px" height="128px" fill-rule="nonzero"><defs><radialGradient cx="31.873" cy="35.569" r="50.261" gradientUnits="userSpaceOnUse" id="color-1"><stop offset="0" stop-color="#e9ce8e"></stop><stop offset="0" stop-color="#eddfb9"></stop><stop offset="0.309" stop-color="#f6e9cb"></stop><stop offset="0.685" stop-color="#fdf2d9"></stop><stop offset="1" stop-color="#fff5de"></stop></radialGradient><linearGradient x1="32" y1="58" x2="32" y2="6" gradientUnits="userSpaceOnUse" id="color-2"><stop offset="0" stop-color="#ff634d"></stop><stop offset="0.204" stop-color="#fe6464"></stop><stop offset="0.521" stop-color="#c7092c"></stop><stop offset="0.794" stop-color="#fa6694"></stop><stop offset="0.989" stop-color="#fa669a"></stop><stop offset="1" stop-color="#fa669a"></stop></linearGradient></defs><g transform=""><g fill="none" fill-rule="nonzero" stroke="none" stroke-width="1" stroke-linecap="butt" stroke-linejoin="miter" stroke-miterlimit="10" stroke-dasharray="" stroke-dashoffset="0" font-family="none" font-weight="none" font-size="none" text-anchor="none" style="mix-blend-mode: normal"><g transform="scale(4,4)"><path d="M59,16h2c1.848,0 3.319,-1.693 2.94,-3.605c-0.283,-1.423 -1.62,-2.395 -3.071,-2.395h-10.369c-0.828,0 -1.5,-0.672 -1.5,-1.5c0,-0.828 0.672,-1.5 1.5,-1.5h5.912c1.139,0 2.202,-0.721 2.497,-1.821c0.446,-1.663 -0.813,-3.179 -2.409,-3.179h-22.5h-1.5h-24c-1.925,0 -3.5,1.575 -3.5,3.5c0,1.925 1.575,3.5 3.5,3.5h1.5c1.105,0 2,0.895 2,2c0,1.105 -0.895,2 -2,2h-5.385c-1.67,0 -3.195,1.122 -3.537,2.757c-0.47,2.245 1.254,4.243 3.422,4.243h7.5l-3,12h-5.385c-1.67,0 -3.195,1.122 -3.537,2.757c-0.47,2.245 1.254,4.243 3.422,4.243h0.5c1.105,0 2,0.895 2,2c0,1.105 -0.895,2 -2,2h-0.5c-2.168,0 -3.892,1.998 -3.422,4.243c0.342,1.635 1.867,2.757 3.537,2.757h5.385c1.105,0 2,0.895 2,2c0,1.105 -0.895,2 -2,2h-1.385c-1.67,0 -3.195,1.122 -3.537,2.757c-0.47,2.245 1.254,4.243 3.422,4.243h23.494h1.506h1.5h22c1.657,0 3,-1.343 3,-3c0,-1.657 -1.343,-3 -3,-3h-0.5c-1.381,0 -2.5,-1.119 -2.5,-2.5c0,-1.381 1.119,-2.5 2.5,-2.5h4.5c1.657,0 3,-1.343 3,-3c0,-1.657 -1.343,-3 -3,-3h-8.377c2.141,-3.494 3.377,-7.602 3.377,-12c0,-2.441 -0.384,-4.792 -1.088,-7h6.501c1.139,0 2.202,-0.721 2.497,-1.821c0.445,-1.663 -0.814,-3.179 -2.41,-3.179h-1.5c-1.105,0 -2,-0.895 -2,-2c0,-1.105 0.895,-2 2,-2z" fill="url(#color-1)"></path><path d="M32,6c-14.337,0 -26,11.664 -26,26c0,14.336 11.663,26 26,26c14.337,0 26,-11.664 26,-26c0,-14.336 -11.663,-26 -26,-26zM32,13c3.902,0 7.614,1.167 10.804,3.388l-26.416,26.416c-2.22,-3.19 -3.388,-6.902 -3.388,-10.804c0,-10.477 8.523,-19 19,-19zM32,51c-3.902,0 -7.614,-1.167 -10.804,-3.388l26.416,-26.416c2.22,3.19 3.388,6.902 3.388,10.804c0,10.477 -8.523,19 -19,19z" fill="url(#color-2)"></path></g></g></g></svg>