<svg width="351" height="113" viewBox="0 0 351 113" fill="none" xmlns="http://www.w3.org/2000/svg">
<g clip-path="url(#clip0_110_2)">
<g clip-path="url(#clip1_110_2)">
<path d="M38.7595 43.3124C38.7595 42.4571 38.0662 41.7638 37.2109 41.7638C36.3556 41.7638 35.6623 42.4571 35.6623 43.3124C35.6623 44.1677 36.3556 44.861 37.2109 44.861C38.0662 44.861 38.7595 44.1677 38.7595 43.3124Z" fill="white"/>
<path d="M38.7595 37.1179C38.7595 36.2627 38.0662 35.5693 37.2109 35.5693C36.3556 35.5693 35.6623 36.2627 35.6623 37.1179C35.6623 37.9732 36.3556 38.6666 37.2109 38.6666C38.0662 38.6666 38.7595 37.9732 38.7595 37.1179Z" fill="white"/>
<path d="M38.7595 30.9235C38.7595 30.0682 38.0662 29.3749 37.2109 29.3749C36.3556 29.3749 35.6623 30.0682 35.6623 30.9235C35.6623 31.7788 36.3556 32.4721 37.2109 32.4721C38.0662 32.4721 38.7595 31.7788 38.7595 30.9235Z" fill="white"/>
<path d="M38.7595 49.5069C38.7595 48.6516 38.0662 47.9583 37.2109 47.9583C36.3556 47.9583 35.6623 48.6516 35.6623 49.5069C35.6623 50.3621 36.3556 51.0555 37.2109 51.0555C38.0662 51.0555 38.7595 50.3621 38.7595 49.5069Z" fill="white"/>
<path d="M23.2734 49.5069C23.2734 48.6516 22.58 47.9583 21.7248 47.9583C20.8695 47.9583 20.1761 48.6516 20.1761 49.5069C20.1761 50.3621 20.8695 51.0555 21.7248 51.0555C22.58 51.0555 23.2734 50.3621 23.2734 49.5069Z" fill="white"/>
<path d="M23.2734 43.3124C23.2734 42.4571 22.58 41.7638 21.7248 41.7638C20.8695 41.7638 20.1761 42.4571 20.1761 43.3124C20.1761 44.1677 20.8695 44.861 21.7248 44.861C22.58 44.861 23.2734 44.1677 23.2734 43.3124Z" fill="white"/>
<path d="M54.2457 49.5069C54.2457 48.6516 53.5523 47.9583 52.6971 47.9583C51.8418 47.9583 51.1484 48.6516 51.1484 49.5069C51.1484 50.3621 51.8418 51.0555 52.6971 51.0555C53.5523 51.0555 54.2457 50.3621 54.2457 49.5069Z" fill="white"/>
<path d="M54.2457 43.3124C54.2457 42.4571 53.5523 41.7638 52.6971 41.7638C51.8418 41.7638 51.1484 42.4571 51.1484 43.3124C51.1484 44.1677 51.8418 44.861 52.6971 44.861C53.5523 44.861 54.2457 44.1677 54.2457 43.3124Z" fill="white"/>
<path d="M31.0165 63.7542C31.0165 62.8989 30.3231 62.2056 29.4679 62.2056C28.6126 62.2056 27.9193 62.8989 27.9193 63.7542C27.9193 64.6095 28.6126 65.3028 29.4679 65.3028C30.3231 65.3028 31.0165 64.6095 31.0165 63.7542Z" fill="white"/>
<path d="M21.7248 89.7708H18.6276V81.3928L27.9192 72.1012V69.0039C27.9192 68.5932 28.0824 68.1993 28.3728 67.9089C28.6632 67.6185 29.0571 67.4553 29.4679 67.4553C29.8786 67.4553 30.2725 67.6185 30.5629 67.9089C30.8533 68.1993 31.0165 68.5932 31.0165 69.0039V73.371L21.7248 82.6627V89.7708Z" fill="white"/>
<path d="M38.7595 82.6007H35.6623V55.7013C35.6623 55.2906 35.8255 54.8967 36.1159 54.6063C36.4063 54.3159 36.8002 54.1527 37.2109 54.1527C37.6216 54.1527 38.0155 54.3159 38.3059 54.6063C38.5964 54.8967 38.7595 55.2906 38.7595 55.7013V82.6007Z" fill="white"/>
<path d="M46.5026 73.6497V38.6666H52.697L37.2109 17.4506L21.7248 38.6666H27.9192V58.7985C27.9192 59.2092 28.0824 59.6031 28.3728 59.8936C28.6632 60.184 29.0571 60.3471 29.4679 60.3471C29.8786 60.3471 30.2725 60.184 30.5629 59.8936C30.8533 59.6031 31.0165 59.2092 31.0165 58.7985V35.5693H27.9192L37.2109 22.7158L46.5026 35.5693H43.4054V74.9351L52.697 84.2267V103.708H55.7943V82.9414L46.5026 73.6497Z" fill="white"/>
<path d="M69.7318 90.3128H66.6346V83.2047L51.1484 67.7186V55.7013C51.1484 55.2906 51.3116 54.8967 51.602 54.6063C51.8924 54.3159 52.2863 54.1527 52.6971 54.1527C53.1078 54.1527 53.5017 54.3159 53.7921 54.6063C54.0825 54.8967 54.2457 55.2906 54.2457 55.7013V66.4487L69.7318 81.9348V90.3128Z" fill="white"/>
<path d="M10.8845 103.708H7.78723V78.2956L20.1761 65.9067V55.7013C20.1761 55.2906 20.3393 54.8967 20.6297 54.6063C20.9201 54.3159 21.314 54.1527 21.7247 54.1527C22.1355 54.1527 22.5294 54.3159 22.8198 54.6063C23.1102 54.8967 23.2734 55.2906 23.2734 55.7013V67.192L10.8845 79.5809V103.708Z" fill="white"/>
<path d="M64.2342 48.6241L61.3847 47.4162C63.4164 42.6051 63.9667 37.2973 62.9653 32.1717C61.9639 27.046 59.4563 22.3357 55.7633 18.643C53.325 16.1988 50.4285 14.2596 47.2397 12.9365C44.0509 11.6134 40.6323 10.9323 37.1799 10.9323C33.7275 10.9323 30.309 11.6134 27.1201 12.9365C23.9313 14.2596 21.0348 16.1988 18.5966 18.643C16.224 21.0452 14.3318 23.8782 13.0216 26.99C11.6608 30.223 10.9598 33.6954 10.9598 37.2031C10.9598 40.7108 11.6608 44.1832 13.0216 47.4162L10.1721 48.6241C7.16473 41.4528 7.11851 33.3826 10.0436 26.1774C12.9686 18.9721 18.627 13.2178 25.7821 10.1721C29.3986 8.65453 33.2812 7.87292 37.2031 7.87292C41.1251 7.87292 45.0077 8.65453 48.6242 10.1721C55.7792 13.2178 61.4377 18.9721 64.3627 26.1774C67.2878 33.3826 67.2415 41.4528 64.2342 48.6241Z" fill="#D713C3"/>
<path d="M63.7231 63.7231L61.5396 61.5396C64.8168 58.3631 67.4293 54.5664 69.2251 50.3705C71.0209 46.1747 71.964 41.6635 71.9996 37.0997C72.0352 32.5358 71.1626 28.0105 69.4325 23.7871C67.7024 19.5638 65.1494 15.7268 61.9222 12.4996C58.6949 9.27232 54.858 6.71934 50.6346 4.98924C46.4112 3.25914 41.8859 2.38648 37.3221 2.42209C32.7582 2.4577 28.247 3.40085 24.0512 5.19664C19.8553 6.99243 16.0586 9.60497 12.8822 12.8822C9.68592 16.0763 7.15041 19.8689 5.4205 24.0434C3.69059 28.2178 2.8002 32.6922 2.8002 37.2109C2.8002 41.7295 3.69059 46.2039 5.4205 50.3784C7.15041 54.5528 9.68592 58.3454 12.8822 61.5396L10.6831 63.7231C3.78233 56.6622 -0.0561185 47.1651 0.000495403 37.2922C0.0571093 27.4193 4.00422 17.9669 10.9855 10.9855C17.9669 4.00422 27.4193 0.0571093 37.2922 0.000495403C47.1651 -0.0561185 56.6622 3.78233 63.7231 10.6831C70.7523 17.719 74.7006 27.2577 74.7006 37.2031C74.7006 47.1486 70.7523 56.6872 63.7231 63.7231Z" fill="#D713C3"/>
<path d="M20.1762 99.0625C19.1042 99.0625 18.0563 98.7446 17.1649 98.149C16.2736 97.5534 15.5789 96.7069 15.1686 95.7165C14.7584 94.7261 14.6511 93.6363 14.8602 92.5849C15.0693 91.5335 15.5855 90.5677 16.3436 89.8097C17.1016 89.0517 18.0674 88.5355 19.1188 88.3263C20.1702 88.1172 21.26 88.2245 22.2504 88.6348C23.2408 89.045 24.0873 89.7397 24.6829 90.631C25.2784 91.5224 25.5963 92.5703 25.5963 93.6423C25.5963 95.0798 25.0253 96.4585 24.0088 97.4749C22.9923 98.4914 21.6137 99.0625 20.1762 99.0625ZM20.1762 91.3194C19.7168 91.3194 19.2676 91.4556 18.8856 91.7109C18.5036 91.9661 18.2059 92.3289 18.0301 92.7534C17.8543 93.1778 17.8083 93.6449 17.8979 94.0955C17.9875 94.5461 18.2088 94.96 18.5336 95.2849C18.8585 95.6097 19.2724 95.831 19.723 95.9206C20.1736 96.0102 20.6407 95.9642 21.0651 95.7884C21.4896 95.6126 21.8524 95.3149 22.1076 94.9329C22.3629 94.5509 22.4991 94.1017 22.4991 93.6423C22.4991 93.0262 22.2544 92.4354 21.8187 91.9998C21.3831 91.5641 20.7923 91.3194 20.1762 91.3194Z" fill="white"/>
<path d="M37.2109 91.8924C36.1389 91.8924 35.091 91.5745 34.1996 90.979C33.3083 90.3834 32.6136 89.5369 32.2034 88.5465C31.7931 87.5561 31.6858 86.4663 31.8949 85.4149C32.1041 84.3634 32.6203 83.3977 33.3783 82.6396C34.1363 81.8816 35.1021 81.3654 36.1535 81.1563C37.2049 80.9471 38.2947 81.0545 39.2851 81.4647C40.2755 81.8749 41.122 82.5697 41.7176 83.461C42.3132 84.3523 42.6311 85.4003 42.6311 86.4723C42.6311 87.9098 42.06 89.2884 41.0435 90.3049C40.0271 91.3214 38.6484 91.8924 37.2109 91.8924ZM37.2109 84.1493C36.7515 84.1493 36.3024 84.2856 35.9204 84.5408C35.5384 84.7961 35.2406 85.1589 35.0648 85.5833C34.889 86.0078 34.843 86.4748 34.9326 86.9254C35.0223 87.3761 35.2435 87.79 35.5684 88.1148C35.8932 88.4397 36.3071 88.6609 36.7577 88.7506C37.2083 88.8402 37.6754 88.7942 38.0999 88.6184C38.5243 88.4426 38.8871 88.1448 39.1424 87.7628C39.3976 87.3808 39.5338 86.9317 39.5338 86.4723C39.5338 85.8562 39.2891 85.2654 38.8535 84.8297C38.4178 84.3941 37.827 84.1493 37.2109 84.1493Z" fill="white"/>
<path d="M54.2456 113C53.1736 113 52.1257 112.682 51.2344 112.087C50.343 111.491 49.6483 110.644 49.2381 109.654C48.8278 108.664 48.7205 107.574 48.9296 106.522C49.1388 105.471 49.655 104.505 50.413 103.747C51.171 102.989 52.1368 102.473 53.1882 102.264C54.2396 102.055 55.3294 102.162 56.3198 102.572C57.3102 102.982 58.1568 103.677 58.7523 104.569C59.3479 105.46 59.6658 106.508 59.6658 107.58C59.6658 109.017 59.0947 110.396 58.0783 111.412C57.0618 112.429 55.6832 113 54.2456 113ZM54.2456 105.257C53.7862 105.257 53.3371 105.393 52.9551 105.648C52.5731 105.904 52.2754 106.266 52.0995 106.691C51.9237 107.115 51.8777 107.582 51.9674 108.033C52.057 108.484 52.2782 108.897 52.6031 109.222C52.928 109.547 53.3419 109.768 53.7925 109.858C54.2431 109.948 54.7101 109.902 55.1346 109.726C55.559 109.55 55.9218 109.252 56.1771 108.87C56.4323 108.488 56.5686 108.039 56.5686 107.58C56.5686 106.964 56.3238 106.373 55.8882 105.937C55.4526 105.502 54.8617 105.257 54.2456 105.257Z" fill="white"/>
<path d="M68.1831 99.6045C67.1111 99.6045 66.0632 99.2866 65.1719 98.691C64.2805 98.0954 63.5858 97.2489 63.1756 96.2585C62.7654 95.2681 62.658 94.1783 62.8671 93.1269C63.0763 92.0755 63.5925 91.1097 64.3505 90.3517C65.1085 89.5937 66.0743 89.0774 67.1257 88.8683C68.1771 88.6592 69.2669 88.7665 70.2573 89.1767C71.2477 89.587 72.0943 90.2817 72.6898 91.173C73.2854 92.0644 73.6033 93.1123 73.6033 94.1843C73.6033 95.6218 73.0322 97.0005 72.0158 98.0169C70.9993 99.0334 69.6207 99.6045 68.1831 99.6045ZM68.1831 91.8614C67.7237 91.8614 67.2746 91.9976 66.8926 92.2529C66.5106 92.5081 66.2129 92.8709 66.037 93.2954C65.8612 93.7198 65.8152 94.1869 65.9049 94.6375C65.9945 95.0881 66.2157 95.502 66.5406 95.8269C66.8655 96.1517 67.2794 96.373 67.73 96.4626C68.1806 96.5522 68.6476 96.5062 69.0721 96.3304C69.4965 96.1546 69.8593 95.8569 70.1146 95.4749C70.3698 95.0929 70.5061 94.6437 70.5061 94.1843C70.5061 93.5682 70.2613 92.9774 69.8257 92.5418C69.3901 92.1061 68.7992 91.8614 68.1831 91.8614Z" fill="white"/>
<path d="M9.33586 113C8.26385 113 7.21592 112.682 6.32459 112.087C5.43325 111.491 4.73853 110.644 4.3283 109.654C3.91806 108.664 3.81072 107.574 4.01986 106.522C4.229 105.471 4.74522 104.505 5.50324 103.747C6.26126 102.989 7.22703 102.473 8.27844 102.264C9.32984 102.055 10.4197 102.162 11.4101 102.572C12.4005 102.982 13.247 103.677 13.8425 104.569C14.4381 105.46 14.756 106.508 14.756 107.58C14.756 109.017 14.185 110.396 13.1685 111.412C12.152 112.429 10.7734 113 9.33586 113ZM9.33586 105.257C8.87643 105.257 8.42731 105.393 8.04531 105.648C7.66331 105.904 7.36558 106.266 7.18976 106.691C7.01394 107.115 6.96794 107.582 7.05757 108.033C7.1472 108.484 7.36844 108.897 7.69331 109.222C8.01817 109.547 8.43208 109.768 8.88268 109.858C9.33328 109.948 9.80034 109.902 10.2248 109.726C10.6493 109.55 11.012 109.252 11.2673 108.87C11.5225 108.488 11.6588 108.039 11.6588 107.58C11.6588 106.964 11.414 106.373 10.9784 105.937C10.5428 105.502 9.95193 105.257 9.33586 105.257Z" fill="white"/>
</g>
<g clip-path="url(#clip2_110_2)">
<path d="M100.52 68.76C97.2267 68.76 94.5933 68.0533 92.62 66.64C90.6533 65.2333 89.2233 63.1867 88.33 60.5C87.4433 57.8133 87 54.5867 87 50.82V33.2C87 29.34 87.4 26.0567 88.2 23.35C89.0067 20.6433 90.4367 18.5767 92.49 17.15C94.55 15.7167 97.4233 15 101.11 15C104.397 15 107.05 15.5533 109.07 16.66C111.083 17.7667 112.543 19.4567 113.45 21.73C114.363 24.0033 114.82 26.8733 114.82 30.34V32.29H107.93V30.67C107.93 28.37 107.78 26.4933 107.48 25.04C107.173 23.5867 106.553 22.5033 105.62 21.79C104.693 21.0767 103.233 20.72 101.24 20.72C99.0733 20.72 97.5 21.22 96.52 22.22C95.5467 23.2133 94.94 24.5667 94.7 26.28C94.46 27.9933 94.34 29.9333 94.34 32.1V51.59C94.34 54.11 94.5267 56.2133 94.9 57.9C95.2667 59.5933 95.97 60.85 97.01 61.67C98.05 62.49 99.5233 62.9 101.43 62.9C103.337 62.9 104.81 62.4467 105.85 61.54C106.89 60.6267 107.607 59.2833 108 57.51C108.387 55.73 108.58 53.52 108.58 50.88V47.24H101.88V42.04H115.21V68.11H110.59L109.88 62.06C109.187 64.0067 108.103 65.61 106.63 66.87C105.157 68.13 103.12 68.76 100.52 68.76ZM128.93 68.62C127.457 68.62 126.153 68.2 125.02 67.36C123.893 66.5133 123.007 65.43 122.36 64.11C121.707 62.7833 121.38 61.3867 121.38 59.92C121.38 57.5733 121.77 55.6 122.55 54C123.33 52.3933 124.403 51.04 125.77 49.94C127.137 48.8333 128.72 47.8667 130.52 47.04C132.32 46.22 134.217 45.42 136.21 44.64V41.97C136.21 40.4567 136.12 39.2 135.94 38.2C135.767 37.2067 135.41 36.46 134.87 35.96C134.33 35.4667 133.517 35.22 132.43 35.22C131.483 35.22 130.717 35.4333 130.13 35.86C129.543 36.2933 129.12 36.9133 128.86 37.72C128.6 38.52 128.47 39.46 128.47 40.54V42.43L121.58 42.17C121.667 38.01 122.62 34.9433 124.44 32.97C126.26 30.9967 129.077 30.01 132.89 30.01C136.617 30.01 139.26 31.03 140.82 33.07C142.38 35.1033 143.16 38.05 143.16 41.91V59.07C143.16 60.2433 143.193 61.37 143.26 62.45C143.32 63.5367 143.407 64.5433 143.52 65.47C143.627 66.4033 143.723 67.2833 143.81 68.11H137.44C137.307 67.41 137.143 66.53 136.95 65.47C136.757 64.41 136.617 63.4467 136.53 62.58C136.097 64.0533 135.263 65.43 134.03 66.71C132.797 67.9833 131.097 68.62 128.93 68.62ZM131.65 62.65C132.343 62.65 132.997 62.4533 133.61 62.06C134.21 61.6733 134.75 61.23 135.23 60.73C135.703 60.23 136.03 59.83 136.21 59.53V48.86C135.123 49.4733 134.103 50.0833 133.15 50.69C132.197 51.29 131.363 51.9267 130.65 52.6C129.937 53.2733 129.373 54.0333 128.96 54.88C128.547 55.7267 128.34 56.69 128.34 57.77C128.34 59.2833 128.62 60.4733 129.18 61.34C129.747 62.2133 130.57 62.65 131.65 62.65ZM156.29 68.11H149.86V30.54H156.29V34.11C157.55 32.6833 158.937 31.6233 160.45 30.93C161.963 30.2367 163.523 29.89 165.13 29.89C166.517 29.89 167.763 30.2367 168.87 30.93C169.977 31.6233 170.767 32.8567 171.24 34.63C172.587 32.9833 174.05 31.78 175.63 31.02C177.21 30.2667 178.867 29.89 180.6 29.89C181.813 29.89 182.917 30.18 183.91 30.76C184.91 31.3467 185.713 32.28 186.32 33.56C186.927 34.8333 187.23 36.51 187.23 38.59V68.11H180.86V39.05C180.86 37.23 180.567 36.0067 179.98 35.38C179.393 34.7533 178.603 34.44 177.61 34.44C176.657 34.44 175.66 34.71 174.62 35.25C173.58 35.79 172.627 36.5367 171.76 37.49C171.76 37.6633 171.76 37.8367 171.76 38.01C171.76 38.1833 171.76 38.3767 171.76 38.59V68.11H165.39V39.05C165.39 37.23 165.097 36.0067 164.51 35.38C163.923 34.7533 163.133 34.44 162.14 34.44C161.187 34.44 160.2 34.71 159.18 35.25C158.167 35.79 157.203 36.5367 156.29 37.49V68.11ZM204.46 68.62C201.513 68.62 199.237 68.0467 197.63 66.9C196.023 65.7533 194.907 64.0633 194.28 61.83C193.653 59.5967 193.34 56.8567 193.34 53.61V45.03C193.34 41.6967 193.667 38.9233 194.32 36.71C194.967 34.5033 196.103 32.8367 197.73 31.71C199.357 30.5767 201.6 30.01 204.46 30.01C207.62 30.01 209.947 30.6633 211.44 31.97C212.94 33.27 213.927 35.1433 214.4 37.59C214.88 40.0367 215.12 42.9733 215.12 46.4V49.45H200.3V56.99C200.3 58.5033 200.44 59.74 200.72 60.7C201 61.6467 201.453 62.35 202.08 62.81C202.713 63.2633 203.527 63.49 204.52 63.49C205.56 63.49 206.35 63.24 206.89 62.74C207.437 62.2467 207.807 61.5333 208 60.6C208.193 59.6667 208.29 58.57 208.29 57.31V55.04H215.05V56.47C215.05 60.2367 214.25 63.2033 212.65 65.37C211.043 67.5367 208.313 68.62 204.46 68.62ZM200.3 43.67V45.68H208.29V42.3C208.29 40.74 208.203 39.43 208.03 38.37C207.857 37.31 207.5 36.5067 206.96 35.96C206.42 35.42 205.563 35.15 204.39 35.15C203.263 35.15 202.407 35.41 201.82 35.93C201.24 36.45 200.84 37.3267 200.62 38.56C200.407 39.8 200.3 41.5033 200.3 43.67ZM234.42 68.69C231.387 68.69 228.863 68.04 226.85 66.74C224.83 65.44 223.3 63.64 222.26 61.34C221.22 59.0467 220.613 56.3833 220.44 53.35L226.94 51.59C227.073 53.4567 227.367 55.2567 227.82 56.99C228.28 58.7233 229.03 60.1433 230.07 61.25C231.11 62.35 232.56 62.9 234.42 62.9C236.327 62.9 237.767 62.37 238.74 61.31C239.713 60.25 240.2 58.7233 240.2 56.73C240.2 54.3433 239.66 52.4267 238.58 50.98C237.493 49.5267 236.127 48.0633 234.48 46.59L225.65 38.79C223.91 37.27 222.63 35.6133 221.81 33.82C220.983 32.02 220.57 29.7967 220.57 27.15C220.57 23.2967 221.677 20.31 223.89 18.19C226.097 16.0633 229.11 15 232.93 15C235.003 15 236.833 15.27 238.42 15.81C240 16.35 241.32 17.1867 242.38 18.32C243.44 19.4467 244.287 20.8633 244.92 22.57C245.547 24.2833 245.97 26.2867 246.19 28.58L239.94 30.28C239.813 28.5467 239.553 26.9533 239.16 25.5C238.773 24.0467 238.093 22.8767 237.12 21.99C236.147 21.0967 234.75 20.65 232.93 20.65C231.103 20.65 229.683 21.14 228.67 22.12C227.65 23.0933 227.14 24.5333 227.14 26.44C227.14 28.0467 227.41 29.3667 227.95 30.4C228.49 31.4467 229.37 32.51 230.59 33.59L239.49 41.39C241.483 43.1233 243.24 45.1933 244.76 47.6C246.273 50 247.03 52.85 247.03 56.15C247.03 58.7433 246.49 60.9833 245.41 62.87C244.323 64.7567 242.837 66.2 240.95 67.2C239.07 68.1933 236.893 68.69 234.42 68.69ZM262.18 68.62C260.227 68.62 258.653 68.2533 257.46 67.52C256.273 66.7867 255.407 65.7467 254.86 64.4C254.32 63.06 254.05 61.4767 254.05 59.65V35.15H250.09V30.54H254.05V19.55H261.01V30.54H267.05V35.15H261.01V59.2C261.01 60.6733 261.247 61.7233 261.72 62.35C262.2 62.9767 263.11 63.29 264.45 63.29C264.797 63.29 265.197 63.27 265.65 63.23C266.11 63.19 266.557 63.1467 266.99 63.1V68.23C266.123 68.3633 265.32 68.4633 264.58 68.53C263.84 68.59 263.04 68.62 262.18 68.62ZM278.95 68.62C277.477 68.62 276.177 68.2 275.05 67.36C273.923 66.5133 273.033 65.43 272.38 64.11C271.733 62.7833 271.41 61.3867 271.41 59.92C271.41 57.5733 271.8 55.6 272.58 54C273.36 52.3933 274.43 51.04 275.79 49.94C277.157 48.8333 278.74 47.8667 280.54 47.04C282.34 46.22 284.237 45.42 286.23 44.64V41.97C286.23 40.4567 286.143 39.2 285.97 38.2C285.797 37.2067 285.437 36.46 284.89 35.96C284.35 35.4667 283.54 35.22 282.46 35.22C281.507 35.22 280.737 35.4333 280.15 35.86C279.563 36.2933 279.14 36.9133 278.88 37.72C278.62 38.52 278.49 39.46 278.49 40.54V42.43L271.6 42.17C271.687 38.01 272.64 34.9433 274.46 32.97C276.28 30.9967 279.097 30.01 282.91 30.01C286.637 30.01 289.28 31.03 290.84 33.07C292.4 35.1033 293.18 38.05 293.18 41.91V59.07C293.18 60.2433 293.213 61.37 293.28 62.45C293.347 63.5367 293.433 64.5433 293.54 65.47C293.647 66.4033 293.743 67.2833 293.83 68.11H287.46C287.333 67.41 287.17 66.53 286.97 65.47C286.777 64.41 286.637 63.4467 286.55 62.58C286.117 64.0533 285.283 65.43 284.05 66.71C282.817 67.9833 281.117 68.62 278.95 68.62ZM281.68 62.65C282.373 62.65 283.023 62.4533 283.63 62.06C284.237 61.6733 284.777 61.23 285.25 60.73C285.73 60.23 286.057 59.83 286.23 59.53V48.86C285.143 49.4733 284.123 50.0833 283.17 50.69C282.217 51.29 281.383 51.9267 280.67 52.6C279.957 53.2733 279.393 54.0333 278.98 54.88C278.567 55.7267 278.36 56.69 278.36 57.77C278.36 59.2833 278.643 60.4733 279.21 61.34C279.77 62.2133 280.593 62.65 281.68 62.65ZM310.15 68.62C307.07 68.62 304.74 68.0033 303.16 66.77C301.58 65.5367 300.517 63.7933 299.97 61.54C299.43 59.2867 299.16 56.6667 299.16 53.68V45.03C299.16 41.87 299.443 39.1733 300.01 36.94C300.57 34.7067 301.64 32.9933 303.22 31.8C304.807 30.6067 307.117 30.01 310.15 30.01C312.877 30.01 314.987 30.4567 316.48 31.35C317.98 32.2367 319.01 33.5567 319.57 35.31C320.137 37.07 320.42 39.2467 320.42 41.84V44.06H314.11V41.78C314.11 40.1333 314.003 38.8333 313.79 37.88C313.57 36.9267 313.18 36.2333 312.62 35.8C312.053 35.3667 311.25 35.15 310.21 35.15C309.083 35.15 308.217 35.41 307.61 35.93C307.003 36.45 306.603 37.3267 306.41 38.56C306.217 39.8 306.12 41.48 306.12 43.6V55.43C306.12 58.6367 306.423 60.7833 307.03 61.87C307.637 62.95 308.72 63.49 310.28 63.49C311.447 63.49 312.3 63.22 312.84 62.68C313.387 62.14 313.733 61.37 313.88 60.37C314.033 59.37 314.11 58.2433 314.11 56.99V53.94H320.42V56.53C320.42 59.05 320.127 61.2167 319.54 63.03C318.953 64.85 317.913 66.24 316.42 67.2C314.927 68.1467 312.837 68.62 310.15 68.62ZM333.68 68.04H326.72V15.39H333.68V46.79L343.82 30.54H351.1L342.26 45.22L350.84 68.11H343.88L336.86 48.86L333.68 53.68V68.04Z" fill="white"/>
</g>
<g clip-path="url(#clip3_110_2)">
<path d="M91.0017 86.2234V104.464H99.6193V107.758H87V86.2234H91.0017ZM112.481 86.2234V107.758H108.46V86.2234H112.481ZM122.904 86.2234H136.491V89.4247H126.942V95.7902H135.002V98.9915H126.942V107.758H122.904V86.2234ZM145.22 86.2234H158.789V89.4247H149.259V95.3807H156.778V98.4704H149.259V104.557H158.789V107.758H145.22V86.2234ZM183.692 86.2234V107.758H179.672V86.2234H183.692ZM206.641 88.2521L205.655 90.1506C205.543 90.3615 205.419 90.5166 205.283 90.6159C205.134 90.7028 204.96 90.7462 204.761 90.7462C204.563 90.7462 204.34 90.6655 204.091 90.5042C203.843 90.3553 203.552 90.1878 203.217 90.0017C202.882 89.8156 202.484 89.6418 202.025 89.4805C201.579 89.3316 201.045 89.2572 200.425 89.2572C199.866 89.2572 199.382 89.3254 198.973 89.4619C198.563 89.586 198.216 89.7721 197.931 90.0203C197.645 90.2561 197.434 90.5415 197.298 90.8765C197.161 91.1991 197.093 91.5589 197.093 91.956C197.093 92.4647 197.236 92.8866 197.521 93.2217C197.807 93.5691 198.179 93.8607 198.638 94.0964C199.109 94.3322 199.643 94.5431 200.239 94.7293C200.834 94.9154 201.442 95.1201 202.063 95.3435C202.683 95.5544 203.291 95.8026 203.887 96.088C204.482 96.361 205.01 96.7146 205.469 97.1489C205.94 97.5832 206.319 98.1105 206.604 98.731C206.889 99.3638 207.032 100.127 207.032 101.02C207.032 101.988 206.865 102.9 206.53 103.756C206.195 104.6 205.704 105.338 205.059 105.971C204.426 106.604 203.645 107.1 202.714 107.46C201.796 107.82 200.741 108 199.55 108C198.867 108 198.191 107.932 197.521 107.795C196.864 107.659 196.224 107.466 195.604 107.218C194.996 106.97 194.425 106.672 193.892 106.325C193.371 105.977 192.899 105.593 192.477 105.171L193.631 103.254C193.743 103.117 193.879 102.999 194.041 102.9C194.19 102.801 194.357 102.751 194.543 102.751C194.791 102.751 195.058 102.857 195.343 103.068C195.641 103.266 195.983 103.49 196.367 103.738C196.764 103.986 197.23 104.215 197.763 104.426C198.284 104.625 198.917 104.724 199.662 104.724C200.803 104.724 201.69 104.451 202.323 103.905C202.944 103.372 203.254 102.596 203.254 101.579C203.254 101.02 203.111 100.561 202.826 100.201C202.553 99.8415 202.18 99.5375 201.709 99.2893C201.237 99.0536 200.704 98.8488 200.108 98.6751C199.513 98.5138 198.911 98.3339 198.303 98.1354C197.682 97.9368 197.074 97.6949 196.479 97.4095C195.883 97.1365 195.356 96.7766 194.897 96.3299C194.425 95.8832 194.047 95.3249 193.761 94.6548C193.476 93.9848 193.333 93.1596 193.333 92.1794C193.333 91.3852 193.495 90.6159 193.817 89.8714C194.127 89.1269 194.58 88.4693 195.176 87.8985C195.784 87.3277 196.522 86.8686 197.391 86.5212C198.259 86.1737 199.258 86 200.387 86C201.653 86 202.826 86.1985 203.905 86.5956C204.972 86.9927 205.884 87.5448 206.641 88.2521ZM236.887 104.817C237.792 104.817 238.58 104.737 239.25 104.575C239.92 104.402 240.56 104.172 241.168 103.887V99.978H238.469C238.208 99.978 238.003 99.9036 237.854 99.7547C237.706 99.6182 237.631 99.4444 237.631 99.2335V96.9628H244.797V105.673C244.251 106.071 243.686 106.418 243.103 106.716C242.508 107.001 241.875 107.243 241.205 107.442C240.535 107.628 239.815 107.764 239.046 107.851C238.289 107.95 237.47 108 236.589 108C235.013 108 233.567 107.727 232.252 107.181C230.924 106.635 229.783 105.878 228.827 104.91C227.86 103.93 227.109 102.764 226.575 101.411C226.029 100.071 225.756 98.6007 225.756 97C225.756 95.3745 226.017 93.8917 226.538 92.5516C227.072 91.1991 227.822 90.0327 228.79 89.0525C229.758 88.0846 230.931 87.3339 232.308 86.8003C233.685 86.2668 235.236 86 236.961 86C238.711 86 240.231 86.2606 241.521 86.7817C242.799 87.3029 243.885 87.9791 244.778 88.8105L243.624 90.6159C243.401 90.9882 243.097 91.1743 242.712 91.1743C242.477 91.1743 242.235 91.0936 241.986 90.9323C241.664 90.7462 241.341 90.5601 241.019 90.3739C240.684 90.1878 240.311 90.0203 239.902 89.8714C239.505 89.7349 239.058 89.6232 238.562 89.5364C238.053 89.4495 237.47 89.4061 236.812 89.4061C235.757 89.4061 234.802 89.586 233.946 89.9459C233.077 90.2933 232.345 90.802 231.75 91.4721C231.142 92.1421 230.67 92.9425 230.335 93.8731C230.012 94.8037 229.851 95.846 229.851 97C229.851 98.2408 230.025 99.3452 230.372 100.313C230.72 101.281 231.204 102.094 231.824 102.751C232.457 103.421 233.201 103.93 234.058 104.277C234.926 104.637 235.869 104.817 236.887 104.817ZM264.582 86.2234L273.051 107.758H269.942C269.595 107.758 269.31 107.671 269.086 107.497C268.863 107.324 268.702 107.107 268.602 106.846L267.002 102.453H258.086L256.467 106.846C256.393 107.082 256.237 107.293 256.002 107.479C255.766 107.665 255.481 107.758 255.146 107.758H252.037L260.487 86.2234H264.582ZM261.734 92.4958L259.11 99.6244H265.978L263.354 92.4772C263.23 92.1545 263.099 91.7761 262.963 91.3418C262.814 90.9075 262.671 90.4422 262.535 89.9459C262.398 90.4422 262.262 90.9137 262.125 91.3604C261.989 91.7947 261.858 92.1732 261.734 92.4958ZM291.663 98.824C291.825 99.1466 291.98 99.4755 292.129 99.8105C292.278 100.158 292.42 100.505 292.557 100.853C292.693 100.493 292.836 100.139 292.985 99.7919C293.134 99.4444 293.295 99.1156 293.469 98.8054L299.834 86.8748C299.909 86.7259 299.989 86.608 300.076 86.5212C300.163 86.4219 300.256 86.3536 300.355 86.3164C300.467 86.2792 300.585 86.2544 300.709 86.242C300.845 86.2296 301.001 86.2234 301.174 86.2234H304.19V107.758H300.672V93.8545C300.672 93.5939 300.678 93.3085 300.69 92.9983C300.703 92.7005 300.728 92.3903 300.765 92.0677L294.25 104.277C294.102 104.55 293.909 104.768 293.673 104.929C293.438 105.078 293.159 105.152 292.836 105.152H292.278C291.967 105.152 291.694 105.078 291.459 104.929C291.21 104.768 291.012 104.55 290.863 104.277L284.274 92.0305C284.311 92.3531 284.336 92.6695 284.349 92.9797C284.373 93.2899 284.386 93.5815 284.386 93.8545V107.758H280.849V86.2234H283.865C284.051 86.2234 284.206 86.2296 284.33 86.242C284.466 86.2544 284.584 86.2792 284.684 86.3164C284.783 86.3536 284.882 86.4219 284.981 86.5212C285.068 86.608 285.149 86.7259 285.223 86.8748L291.663 98.824ZM314.129 86.2234H327.716V89.4247H318.168V95.3807H325.687V98.4704H318.168V104.557H327.716V107.758H314.129V86.2234Z" fill="#D713C3"/>
</g>
</g>
<defs>
<clipPath id="clip0_110_2">
<rect width="351" height="113" fill="white"/>
</clipPath>
<clipPath id="clip1_110_2">
<rect width="74.7007" height="113" fill="white"/>
</clipPath>
<clipPath id="clip2_110_2">
<rect width="264.1" height="53.76" fill="white" transform="translate(87 15)"/>
</clipPath>
<clipPath id="clip3_110_2">
<rect width="240.716" height="22" fill="white" transform="translate(87 86)"/>
</clipPath>
</defs>
</svg>
